<svg width="350" height="200" viewBox="0 0 350 200" fill="none" xmlns="http://www.w3.org/2000/svg">
<rect width="350" height="200" fill="white"/>
<rect x="5" y="5" width="340" height="190" fill="white" stroke="#D0BEBE" stroke-width="10" stroke-linejoin="round"/>
<path d="M170.931 31C170.313 31 169.901 31.412 169.592 31.927L139.309 102.073C139.103 102.588 139 103.412 139 104.03V112.373C139 112.888 139.412 113.3 139.927 113.3H210.073C210.588 113.3 211 112.888 211 112.373V104.03C211 103.515 210.897 102.588 210.691 102.073L180.408 31.927C180.202 31.412 179.687 31 179.069 31H170.725H170.931ZM170.004 61.9013H180.305V82.5021H170.004V61.9013ZM170.004 92.8026H180.305V103.103H170.004V92.8026Z" fill="black"/>
<path d="M96.36 145.71V147.69H104.49V145.71H96.36ZM94.5 144.36H106.44V149.04H94.5V144.36ZM95.31 154.53V161.22H105.54V154.53H95.31ZM93.51 153.12H107.43V162.66H93.51V153.12ZM98.64 156.99V158.76H102.15V156.99H98.64ZM97.23 155.82H103.62V159.96H97.23V155.82ZM91.47 150.42H109.56V151.83H91.47V150.42ZM99.39 148.14H101.37V151.05H99.39V148.14ZM87.96 141.03H113.1V167.37H110.88V142.95H90.09V167.37H87.96V141.03ZM89.28 164.28H112.05V166.2H89.28V164.28ZM122.07 147.57H142.59V149.91H122.07V147.57ZM131.76 139.86H134.13V148.65H131.76V139.86ZM120.87 140.58H123.21V150.6C123.21 156.57 122.7 162.75 118.38 167.46C118.02 166.95 117.18 166.11 116.64 165.72C120.45 161.46 120.87 155.91 120.87 150.6V140.58ZM121.98 154.68H137.94V167.43H135.51V157.02H121.98V154.68ZM167.4 141.33L168.99 140.19C170.55 141.42 172.35 143.1 173.22 144.33L171.51 145.56C170.7 144.36 168.93 142.56 167.4 141.33ZM147.09 146.46H174V148.35H147.09V146.46ZM148.44 142.23H161.49V144.03H148.44V142.23ZM147.93 150.36H162.03V152.04H147.93V150.36ZM147.45 162.69H162.15V164.43H147.45V162.69ZM153.9 139.8H156.06V148.05H153.9V139.8ZM150.33 157.98V159.69H159.63V157.98H150.33ZM150.33 155.01V156.69H159.63V155.01H150.33ZM148.62 153.69H161.37V161.01H148.62V153.69ZM154.05 154.47H155.79V160.53H155.94V167.43H153.93V160.53H154.05V154.47ZM153.9 148.44H155.97V154.14H153.9V148.44ZM163.14 139.86H165.42C165.27 154.17 167.52 165.21 171.24 165.21C172.05 165.21 172.38 163.77 172.56 160.08C173.04 160.56 173.82 161.01 174.39 161.22C174.03 165.99 173.25 167.4 171.03 167.4C165.15 167.4 163.23 154.77 163.14 139.86ZM170.64 150L172.65 150.63C170.43 157.62 166.53 163.74 161.04 167.43C160.71 166.89 160.02 166.2 159.45 165.75C164.76 162.45 168.6 156.6 170.64 150ZM182.31 141.63H190.8V143.91H182.31V141.63ZM189.66 141.63H191.97C191.97 147 192.63 158.4 204.48 165.42C203.97 165.81 203.07 166.77 202.65 167.31C190.65 160.05 189.66 147.27 189.66 141.63ZM188.82 147.51L191.37 147.99C189.21 157.14 185.25 163.47 178.62 167.37C178.2 166.89 177.18 165.96 176.58 165.54C183.24 162.06 186.99 156 188.82 147.51ZM219.33 143.55H233.64V145.5H219.33V143.55ZM218.19 149.97H234.33V151.95H218.19V149.97ZM221.46 159.33H231.3V161.1H221.46V159.33ZM221.46 164.16H231.3V166.05H221.46V164.16ZM220.53 154.56H232.53V167.34H230.4V156.42H222.6V167.4H220.53V154.56ZM222.18 139.8H224.28V151.05H222.18V139.8ZM228.27 139.8H230.37V151.05H228.27V139.8ZM208.65 147.24H217.35V149.16H208.65V147.24ZM207.09 152.37H218.28V154.35H207.09V152.37ZM207.72 156.42L209.31 156.03C209.97 157.8 210.48 160.11 210.63 161.58L208.92 162.03C208.83 160.5 208.35 158.22 207.72 156.42ZM206.79 164.46C209.73 163.98 214.32 163.11 218.73 162.24L218.88 164.16C214.8 165.03 210.45 165.9 207.3 166.5L206.79 164.46ZM216.27 155.7L218.1 156.21C217.53 158.1 216.9 160.35 216.33 161.76L214.89 161.28C215.37 159.78 216.03 157.32 216.27 155.7ZM211.89 148.11H213.9V164.31L211.89 164.64V148.11ZM211.74 139.83H212.94V140.31H213.6V140.91C212.49 143.19 210.57 146.4 207.66 149.01C207.36 148.56 206.67 147.87 206.22 147.57C208.89 145.26 210.75 142.23 211.74 139.83ZM212.1 139.83H213.78C215.7 141.51 218.07 143.94 219.18 145.56L217.65 147.24C216.6 145.65 214.41 143.01 212.52 141.42H212.1V139.83ZM247.2 157.62H264.39V159.69H247.2V157.62ZM254.94 142.62V147.66H260.73V142.62H254.94ZM252.93 140.67H262.8V149.58H252.93V140.67ZM257.46 161.37L259.32 160.35C261.21 162.12 263.46 164.61 264.51 166.29L262.53 167.46C261.57 165.78 259.38 163.2 257.46 161.37ZM248.52 143.07H250.59V155.43H248.52V143.07ZM252.12 160.23L254.19 161.31C252.69 163.5 250.26 165.93 248.07 167.43C247.68 167.01 246.93 166.35 246.42 165.96C248.58 164.55 250.95 162.15 252.12 160.23ZM249.6 151.92H261.9V158.61H259.68V153.9H249.6V151.92ZM237.93 148.89H246.03V150.69H237.93V148.89ZM238.08 140.88H245.91V142.68H238.08V140.88ZM237.93 152.91H246.03V154.71H237.93V152.91ZM236.64 144.81H246.9V146.67H236.64V144.81ZM238.98 156.96H246.03V165.69H238.98V163.83H244.14V158.82H238.98V156.96ZM237.87 156.96H239.79V167.1H237.87V156.96Z" fill="black"/>
</svg>
