<svg width="1024" height="1024" viewBox="0 0 1024 1024" fill="none" xmlns="http://www.w3.org/2000/svg">
<rect width="1024" height="1024" fill="#F5F5F5"/>
<g clip-path="url(#clip0_0_1)">
<rect width="1024" height="1024" fill="#D9D9D9"/>
<path d="M617.004 833.531C592.281 852.439 564.295 862.606 534.078 866.948C501.974 871.56 470.438 868.406 439.996 857.398C409.257 846.283 383.401 828.273 365.641 800.121C341.711 762.188 345.586 715.886 374.889 681.823C399.412 653.317 431.056 637.618 467.097 630.071C495.462 624.132 524.041 624.058 552.304 631.062C581.195 638.223 606.733 651.912 628.755 672.032C629.86 673.041 630.778 674.364 632.514 674.677C633.793 672.907 633.187 670.893 633.188 669.026C633.221 503.613 633.224 338.201 633.205 172.789C633.205 169.684 633.287 166.617 634.643 163.771C637.268 158.26 641.511 155.06 647.777 155.006C660.097 154.9 672.337 156.221 684.522 157.7C707.422 160.48 730.018 164.813 752.084 171.786C789.919 183.741 824.285 201.877 853.75 228.65C878.324 250.978 896.029 278.008 907.126 309.299C915.127 331.86 919.318 355.109 918.981 379.098C918.86 387.748 912.122 394.461 903.809 394.38C895.937 394.303 889.459 387.696 889.125 379.468C889.006 376.537 888.711 373.614 888.575 370.684C885.839 312.126 859.617 266.717 811.728 233.438C782.832 213.357 750.766 200.807 716.558 193.291C700.86 189.842 685.005 187.514 669.015 185.989C663.297 185.444 663.122 185.491 663.116 191.273C662.997 302.713 663.186 414.154 662.653 525.592C662.31 597.179 662.432 668.764 662.478 740.349C662.484 749.989 662.98 759.516 660.753 768.997C655.136 792.916 641.865 811.991 623.708 828.012C621.614 829.86 619.394 831.566 617.004 833.531Z" fill="black"/>
<path d="M173.216 222.956C155.317 222.957 137.837 223.076 120.36 222.918C108.13 222.807 101.144 210.392 107.244 199.976C109.697 195.788 113.538 193.778 118.181 193.095C119.278 192.933 120.415 193.027 121.533 193.027C249.479 193.038 377.425 193.05 505.371 193.068C514.091 193.069 519.201 196.504 521.371 203.749C524.099 212.858 517.644 222.102 507.97 222.882C506.302 223.016 504.616 222.95 502.938 222.95C393.171 222.953 283.403 222.955 173.216 222.956Z" fill="black"/>
<path d="M495.322 370.026C499.655 370.032 503.571 369.943 507.481 370.064C515.322 370.306 521.54 376.64 521.981 384.701C522.386 392.1 516.253 399.033 508.535 399.841C507.15 399.986 505.742 399.94 504.345 399.94C377.149 399.949 249.953 399.939 122.757 400C115.463 400.003 109.516 398.124 106.31 390.962C102.036 381.415 108.713 370.548 119.186 370.061C121.557 369.95 123.937 370.026 126.314 370.026C249.176 370.025 372.039 370.026 495.322 370.026Z" fill="black"/>
<path d="M223.594 547.032C263.892 547.034 303.771 547.018 343.649 547.056C350.824 547.063 355.819 550.62 358.117 557.038C360.263 563.029 358.428 569.491 353.363 573.62C350.049 576.321 346.195 577.004 341.985 577C281.958 576.943 221.931 576.963 161.904 576.964C148.331 576.964 134.758 576.987 121.186 576.959C111.793 576.94 105.045 570.655 105 561.964C104.954 553.102 111.421 547.021 121.17 547.012C155.172 546.98 189.173 547.02 223.594 547.032Z" fill="black"/>
</g>
<rect x="5" y="5" width="1014" height="1014" rx="12" stroke="black" stroke-width="10" stroke-linejoin="round"/>
<defs>
<clipPath id="clip0_0_1">
<rect width="1024" height="1024" rx="17" fill="white"/>
</clipPath>
</defs>
</svg>
