<svg version="1.1" id="Layer_1" xmlns="http://www.w3.org/2000/svg" xmlns:xlink="http://www.w3.org/1999/xlink" x="0px" y="0px"
	 width="100%" viewBox="0 0 1024 1024" enable-background="new 0 0 1024 1024" xml:space="preserve">
<path fill="#000000" opacity="1.000000" stroke="none" 
	d="
M638.360596,896.402344 
	C608.897034,918.938416 575.545288,931.057556 539.534363,936.232117 
	C501.275269,941.729614 463.691528,937.970642 427.412476,924.849915 
	C390.780182,911.601501 359.966309,890.134766 338.801178,856.580383 
	C310.282806,811.368286 314.899963,756.180847 349.822571,715.580261 
	C379.047699,681.603577 416.758148,662.891479 459.709717,653.897095 
	C493.513672,646.818298 527.573242,646.729675 561.254578,655.078186 
	C595.685913,663.612610 626.120789,679.928894 652.365112,703.910217 
	C653.681458,705.113098 654.776184,706.689697 656.844299,707.062744 
	C658.368835,704.953552 657.647339,702.553040 657.647827,700.327026 
	C657.687744,503.170776 657.690735,306.014496 657.668274,108.858238 
	C657.667847,105.157951 657.766418,101.501785 659.382080,98.109650 
	C662.510620,91.541115 667.567139,87.726707 675.034729,87.662582 
	C689.716248,87.536522 704.303101,89.110695 718.825195,90.873772 
	C746.115845,94.187073 773.044189,99.351669 799.342102,107.662544 
	C844.431763,121.912117 885.386841,143.528320 920.501221,175.439041 
	C949.786682,202.052734 970.886658,234.269989 984.111450,271.565521 
	C993.646667,298.455933 998.640991,326.166687 998.240173,354.759735 
	C998.095642,365.069336 990.065552,373.071075 980.158569,372.974365 
	C970.777588,372.882812 963.056763,365.008179 962.659058,355.200745 
	C962.517395,351.707886 962.166321,348.223877 962.003235,344.731537 
	C958.743469,274.935089 927.493713,220.812439 870.422119,181.146179 
	C835.985413,157.211777 797.770752,142.253387 757.003967,133.295059 
	C738.296143,129.184097 719.400696,126.409302 700.344666,124.591698 
	C693.529846,123.941681 693.321472,123.998436 693.314087,130.889252 
	C693.172546,263.715485 693.398438,396.543488 692.762451,529.367371 
	C692.353882,614.692383 692.498962,700.015381 692.553894,785.338501 
	C692.561340,796.827576 693.151978,808.183228 690.498535,819.483459 
	C683.804016,847.992920 667.989380,870.728271 646.350708,889.823669 
	C643.854309,892.026611 641.208923,894.060608 638.360596,896.402344 
z"/>
<path fill="#000000" opacity="1.000000" stroke="none" 
	d="
M108.999962,169.284012 
	C87.672302,169.285019 66.843376,169.426575 46.017437,169.238022 
	C31.444254,169.106079 23.119778,154.298981 30.388996,141.876190 
	C33.311916,136.881058 37.888535,134.483780 43.421265,133.669067 
	C44.728394,133.476578 46.082855,133.588882 47.415543,133.589005 
	C199.874039,133.601929 352.332520,133.615677 504.791016,133.636963 
	C515.182190,133.638412 521.271301,137.735016 523.856812,146.376099 
	C527.107422,157.240005 519.415771,168.264969 507.888397,169.195068 
	C505.900513,169.355484 503.891724,169.275772 501.892609,169.275833 
	C371.095062,169.280457 240.297516,169.281876 108.999962,169.284012 
z"/>
<path fill="#000000" opacity="1.000000" stroke="none" 
	d="
M492.999207,344.666382 
	C498.164215,344.673462 502.832916,344.567963 507.493958,344.711975 
	C516.840454,345.000793 524.252258,352.549072 524.778076,362.154419 
	C525.260742,370.971588 517.950562,379.234283 508.749664,380.196991 
	C507.098755,380.369751 505.420898,380.314789 503.755463,380.314911 
	C352.133789,380.326050 200.512085,380.313904 48.890438,380.386444 
	C40.196831,380.390594 33.106781,378.150543 29.285393,369.615875 
	C24.191362,358.238892 32.149967,345.288513 44.633904,344.707916 
	C47.460625,344.576477 50.297962,344.666168 53.130413,344.666138 
	C199.586761,344.665497 346.043091,344.666168 492.999207,344.666382 
z"/>
<path fill="#000000" opacity="1.000000" stroke="none" 
	d="
M169.000107,555.653015 
	C216.998550,555.655579 264.497009,555.635864 311.995392,555.681641 
	C320.541351,555.689880 326.490723,559.927917 329.228729,567.575745 
	C331.784210,574.713745 329.598053,582.413391 323.565552,587.333130 
	C319.618469,590.552124 315.028564,591.365784 310.013977,591.361023 
	C238.516373,591.293335 167.018723,591.316406 95.521072,591.317932 
	C79.354942,591.318298 63.188759,591.345276 47.022694,591.312622 
	C35.835270,591.290039 27.798058,583.801208 27.744204,573.445435 
	C27.689287,562.885742 35.391964,555.640198 47.004181,555.629333 
	C87.502777,555.591614 128.001450,555.638428 169.000107,555.653015 
z"/>
</svg>